<mxfile host="app.diagrams.net" modified="2021-06-04T00:57:23.539Z" agent="5.0 (Macintosh; Intel Mac OS X 10_15_7) AppleWebKit/537.36 (KHTML, like Gecko) Chrome/91.0.4472.77 Safari/537.36" etag="DcbnWwfJY5_nwQORdbWg" version="14.7.4" type="github">
  <diagram id="C5RBs43oDa-KdzZeNtuy" name="Page-1">
    <mxGraphModel dx="4357" dy="1591" grid="1" gridSize="10" guides="1" tooltips="1" connect="1" arrows="1" fold="1" page="1" pageScale="1" pageWidth="827" pageHeight="1169" math="0" shadow="0">
      <root>
        <mxCell id="WIyWlLk6GJQsqaUBKTNV-0" />
        <mxCell id="WIyWlLk6GJQsqaUBKTNV-1" parent="WIyWlLk6GJQsqaUBKTNV-0" />
        <mxCell id="TbMN98FNXeHNd-4LAtVk-0" value="" style="shape=table;html=1;whiteSpace=wrap;startSize=0;container=1;collapsible=0;childLayout=tableLayout;" vertex="1" parent="WIyWlLk6GJQsqaUBKTNV-1">
          <mxGeometry x="-1650" width="2460" height="1160" as="geometry" />
        </mxCell>
        <mxCell id="TbMN98FNXeHNd-4LAtVk-1" value="" style="shape=partialRectangle;html=1;whiteSpace=wrap;collapsible=0;dropTarget=0;pointerEvents=0;fillColor=none;top=0;left=0;bottom=0;right=0;points=[[0,0.5],[1,0.5]];portConstraint=eastwest;" vertex="1" parent="TbMN98FNXeHNd-4LAtVk-0">
          <mxGeometry width="2460" height="60" as="geometry" />
        </mxCell>
        <mxCell id="TbMN98FNXeHNd-4LAtVk-2" value="" style="shape=partialRectangle;html=1;whiteSpace=wrap;connectable=0;overflow=hidden;fillColor=none;top=0;left=0;bottom=0;right=0;direction=south;" vertex="1" parent="TbMN98FNXeHNd-4LAtVk-1">
          <mxGeometry width="1131" height="60" as="geometry" />
        </mxCell>
        <mxCell id="TbMN98FNXeHNd-4LAtVk-3" value="&lt;font style=&quot;font-size: 35px&quot;&gt;&lt;b&gt;User Vaccine Booking&lt;/b&gt;&lt;/font&gt;" style="shape=partialRectangle;html=1;whiteSpace=wrap;connectable=0;overflow=hidden;fillColor=none;top=0;left=0;bottom=0;right=0;" vertex="1" parent="TbMN98FNXeHNd-4LAtVk-1">
          <mxGeometry x="1131" width="616" height="60" as="geometry" />
        </mxCell>
        <mxCell id="TbMN98FNXeHNd-4LAtVk-4" value="" style="shape=partialRectangle;html=1;whiteSpace=wrap;connectable=0;overflow=hidden;fillColor=none;top=0;left=0;bottom=0;right=0;" vertex="1" parent="TbMN98FNXeHNd-4LAtVk-1">
          <mxGeometry x="1747" width="713" height="60" as="geometry" />
        </mxCell>
        <mxCell id="r9CleuGrpg9zZy7BCTui-2" style="shape=partialRectangle;html=1;whiteSpace=wrap;collapsible=0;dropTarget=0;pointerEvents=0;fillColor=none;top=0;left=0;bottom=0;right=0;points=[[0,0.5],[1,0.5]];portConstraint=eastwest;" vertex="1" parent="TbMN98FNXeHNd-4LAtVk-0">
          <mxGeometry y="60" width="2460" height="60" as="geometry" />
        </mxCell>
        <mxCell id="r9CleuGrpg9zZy7BCTui-3" value="&lt;font style=&quot;font-size: 34px&quot;&gt;Annonymous&lt;/font&gt;" style="shape=partialRectangle;html=1;whiteSpace=wrap;connectable=0;overflow=hidden;fillColor=none;top=0;left=0;bottom=0;right=0;" vertex="1" parent="r9CleuGrpg9zZy7BCTui-2">
          <mxGeometry width="1131" height="60" as="geometry" />
        </mxCell>
        <mxCell id="r9CleuGrpg9zZy7BCTui-4" value="&lt;font style=&quot;font-size: 34px&quot;&gt;Registration/Login&lt;/font&gt;" style="shape=partialRectangle;html=1;whiteSpace=wrap;connectable=0;overflow=hidden;fillColor=none;top=0;left=0;bottom=0;right=0;" vertex="1" parent="r9CleuGrpg9zZy7BCTui-2">
          <mxGeometry x="1131" width="616" height="60" as="geometry" />
        </mxCell>
        <mxCell id="r9CleuGrpg9zZy7BCTui-5" value="&lt;font style=&quot;font-size: 34px&quot;&gt;Authorised&lt;/font&gt;" style="shape=partialRectangle;html=1;whiteSpace=wrap;connectable=0;overflow=hidden;fillColor=none;top=0;left=0;bottom=0;right=0;" vertex="1" parent="r9CleuGrpg9zZy7BCTui-2">
          <mxGeometry x="1747" width="713" height="60" as="geometry" />
        </mxCell>
        <mxCell id="TbMN98FNXeHNd-4LAtVk-13" value="" style="shape=partialRectangle;html=1;whiteSpace=wrap;collapsible=0;dropTarget=0;pointerEvents=0;fillColor=none;top=0;left=0;bottom=0;right=0;points=[[0,0.5],[1,0.5]];portConstraint=eastwest;" vertex="1" parent="TbMN98FNXeHNd-4LAtVk-0">
          <mxGeometry y="120" width="2460" height="1040" as="geometry" />
        </mxCell>
        <mxCell id="TbMN98FNXeHNd-4LAtVk-14" value="" style="shape=partialRectangle;html=1;whiteSpace=wrap;connectable=0;overflow=hidden;fillColor=none;top=0;left=0;bottom=0;right=0;" vertex="1" parent="TbMN98FNXeHNd-4LAtVk-13">
          <mxGeometry width="1131" height="1040" as="geometry" />
        </mxCell>
        <mxCell id="TbMN98FNXeHNd-4LAtVk-15" value="&lt;span style=&quot;color: rgba(0 , 0 , 0 , 0) ; font-family: monospace ; font-size: 0px&quot;&gt;%3CmxGraphModel%3E%3Croot%3E%3CmxCell%20id%3D%220%22%2F%3E%3CmxCell%20id%3D%221%22%20parent%3D%220%22%2F%3E%3CmxCell%20id%3D%222%22%20value%3D%22No%22%20style%3D%22text%3Bhtml%3D1%3BstrokeColor%3Dnone%3BfillColor%3Dnone%3Balign%3Dcenter%3BverticalAlign%3Dmiddle%3BwhiteSpace%3Dwrap%3Brounded%3D0%3B%22%20vertex%3D%221%22%20parent%3D%221%22%3E%3CmxGeometry%20x%3D%22-110%22%20y%3D%22890%22%20width%3D%2240%22%20height%3D%2220%22%20as%3D%22geometry%22%2F%3E%3C%2FmxCell%3E%3C%2Froot%3E%3C%2FmxGraphModel%3E&lt;/span&gt;" style="shape=partialRectangle;html=1;whiteSpace=wrap;connectable=0;overflow=hidden;fillColor=none;top=0;left=0;bottom=0;right=0;" vertex="1" parent="TbMN98FNXeHNd-4LAtVk-13">
          <mxGeometry x="1131" width="616" height="1040" as="geometry" />
        </mxCell>
        <mxCell id="TbMN98FNXeHNd-4LAtVk-16" value="" style="shape=partialRectangle;html=1;whiteSpace=wrap;connectable=0;overflow=hidden;fillColor=none;top=0;left=0;bottom=0;right=0;" vertex="1" parent="TbMN98FNXeHNd-4LAtVk-13">
          <mxGeometry x="1747" width="713" height="1040" as="geometry" />
        </mxCell>
        <mxCell id="r9CleuGrpg9zZy7BCTui-31" value="" style="edgeStyle=orthogonalEdgeStyle;rounded=0;orthogonalLoop=1;jettySize=auto;html=1;" edge="1" parent="WIyWlLk6GJQsqaUBKTNV-1" source="r9CleuGrpg9zZy7BCTui-18" target="r9CleuGrpg9zZy7BCTui-30">
          <mxGeometry relative="1" as="geometry" />
        </mxCell>
        <mxCell id="r9CleuGrpg9zZy7BCTui-18" value="&lt;font style=&quot;font-size: 15px&quot;&gt;Home Page&lt;/font&gt;" style="rounded=1;whiteSpace=wrap;html=1;fontSize=12;glass=0;strokeWidth=1;shadow=0;" vertex="1" parent="WIyWlLk6GJQsqaUBKTNV-1">
          <mxGeometry x="-1440" y="315" width="120" height="70" as="geometry" />
        </mxCell>
        <mxCell id="r9CleuGrpg9zZy7BCTui-38" value="" style="edgeStyle=orthogonalEdgeStyle;rounded=0;orthogonalLoop=1;jettySize=auto;html=1;" edge="1" parent="WIyWlLk6GJQsqaUBKTNV-1" source="r9CleuGrpg9zZy7BCTui-22" target="r9CleuGrpg9zZy7BCTui-37">
          <mxGeometry relative="1" as="geometry" />
        </mxCell>
        <mxCell id="r9CleuGrpg9zZy7BCTui-22" value="&lt;font style=&quot;font-size: 16px&quot;&gt;User enters the postal code&lt;/font&gt;" style="rounded=1;whiteSpace=wrap;html=1;fontSize=12;glass=0;strokeWidth=1;shadow=0;" vertex="1" parent="WIyWlLk6GJQsqaUBKTNV-1">
          <mxGeometry x="-1440" y="720" width="120" height="70" as="geometry" />
        </mxCell>
        <mxCell id="r9CleuGrpg9zZy7BCTui-33" value="" style="edgeStyle=orthogonalEdgeStyle;rounded=0;orthogonalLoop=1;jettySize=auto;html=1;" edge="1" parent="WIyWlLk6GJQsqaUBKTNV-1" source="r9CleuGrpg9zZy7BCTui-30" target="r9CleuGrpg9zZy7BCTui-32">
          <mxGeometry relative="1" as="geometry" />
        </mxCell>
        <mxCell id="r9CleuGrpg9zZy7BCTui-30" value="&lt;font style=&quot;font-size: 15px&quot;&gt;Book Now&lt;/font&gt;" style="rounded=1;whiteSpace=wrap;html=1;fontSize=12;glass=0;strokeWidth=1;shadow=0;" vertex="1" parent="WIyWlLk6GJQsqaUBKTNV-1">
          <mxGeometry x="-1440" y="430" width="120" height="55" as="geometry" />
        </mxCell>
        <mxCell id="r9CleuGrpg9zZy7BCTui-59" value="" style="edgeStyle=orthogonalEdgeStyle;rounded=0;orthogonalLoop=1;jettySize=auto;html=1;" edge="1" parent="WIyWlLk6GJQsqaUBKTNV-1" source="r9CleuGrpg9zZy7BCTui-32" target="r9CleuGrpg9zZy7BCTui-22">
          <mxGeometry relative="1" as="geometry" />
        </mxCell>
        <mxCell id="r9CleuGrpg9zZy7BCTui-32" value="&lt;font style=&quot;font-size: 15px&quot;&gt;Location Tab&lt;/font&gt;" style="rounded=1;whiteSpace=wrap;html=1;fontSize=12;glass=0;strokeWidth=1;shadow=0;" vertex="1" parent="WIyWlLk6GJQsqaUBKTNV-1">
          <mxGeometry x="-1440" y="590" width="120" height="70" as="geometry" />
        </mxCell>
        <mxCell id="r9CleuGrpg9zZy7BCTui-40" value="" style="edgeStyle=orthogonalEdgeStyle;rounded=0;orthogonalLoop=1;jettySize=auto;html=1;" edge="1" parent="WIyWlLk6GJQsqaUBKTNV-1" source="r9CleuGrpg9zZy7BCTui-37" target="r9CleuGrpg9zZy7BCTui-39">
          <mxGeometry relative="1" as="geometry" />
        </mxCell>
        <mxCell id="r9CleuGrpg9zZy7BCTui-37" value="&lt;font style=&quot;font-size: 15px&quot;&gt;Select the location from the list&lt;/font&gt;" style="rounded=1;whiteSpace=wrap;html=1;fontSize=12;glass=0;strokeWidth=1;shadow=0;" vertex="1" parent="WIyWlLk6GJQsqaUBKTNV-1">
          <mxGeometry x="-1450" y="870" width="140" height="90" as="geometry" />
        </mxCell>
        <mxCell id="r9CleuGrpg9zZy7BCTui-45" value="" style="edgeStyle=orthogonalEdgeStyle;rounded=0;orthogonalLoop=1;jettySize=auto;html=1;" edge="1" parent="WIyWlLk6GJQsqaUBKTNV-1" source="r9CleuGrpg9zZy7BCTui-39" target="r9CleuGrpg9zZy7BCTui-44">
          <mxGeometry relative="1" as="geometry" />
        </mxCell>
        <mxCell id="r9CleuGrpg9zZy7BCTui-39" value="&lt;font style=&quot;font-size: 15px&quot;&gt;Select the provider page&lt;/font&gt;" style="rounded=1;whiteSpace=wrap;html=1;fontSize=12;glass=0;strokeWidth=1;shadow=0;" vertex="1" parent="WIyWlLk6GJQsqaUBKTNV-1">
          <mxGeometry x="-1250" y="570" width="140" height="130" as="geometry" />
        </mxCell>
        <mxCell id="r9CleuGrpg9zZy7BCTui-52" value="" style="edgeStyle=orthogonalEdgeStyle;rounded=0;orthogonalLoop=1;jettySize=auto;html=1;" edge="1" parent="WIyWlLk6GJQsqaUBKTNV-1" source="r9CleuGrpg9zZy7BCTui-44" target="r9CleuGrpg9zZy7BCTui-51">
          <mxGeometry relative="1" as="geometry" />
        </mxCell>
        <mxCell id="r9CleuGrpg9zZy7BCTui-44" value="&lt;font style=&quot;font-size: 13px&quot;&gt;Default slot Booking&lt;/font&gt;" style="rhombus;whiteSpace=wrap;html=1;rounded=1;shadow=0;strokeWidth=1;glass=0;" vertex="1" parent="WIyWlLk6GJQsqaUBKTNV-1">
          <mxGeometry x="-1030" y="580" width="170" height="110" as="geometry" />
        </mxCell>
        <mxCell id="r9CleuGrpg9zZy7BCTui-68" value="" style="edgeStyle=orthogonalEdgeStyle;rounded=0;orthogonalLoop=1;jettySize=auto;html=1;" edge="1" parent="WIyWlLk6GJQsqaUBKTNV-1" source="r9CleuGrpg9zZy7BCTui-46" target="r9CleuGrpg9zZy7BCTui-67">
          <mxGeometry relative="1" as="geometry" />
        </mxCell>
        <mxCell id="r9CleuGrpg9zZy7BCTui-46" value="Sign-in Page" style="whiteSpace=wrap;html=1;rounded=1;shadow=0;strokeWidth=1;glass=0;" vertex="1" parent="WIyWlLk6GJQsqaUBKTNV-1">
          <mxGeometry x="-700" y="410" width="120" height="60" as="geometry" />
        </mxCell>
        <mxCell id="r9CleuGrpg9zZy7BCTui-48" value="Yes" style="text;html=1;strokeColor=none;fillColor=none;align=center;verticalAlign=middle;whiteSpace=wrap;rounded=0;" vertex="1" parent="WIyWlLk6GJQsqaUBKTNV-1">
          <mxGeometry x="-990" y="350" width="40" height="20" as="geometry" />
        </mxCell>
        <mxCell id="r9CleuGrpg9zZy7BCTui-55" value="" style="edgeStyle=orthogonalEdgeStyle;rounded=0;orthogonalLoop=1;jettySize=auto;html=1;" edge="1" parent="WIyWlLk6GJQsqaUBKTNV-1" source="r9CleuGrpg9zZy7BCTui-51" target="r9CleuGrpg9zZy7BCTui-54">
          <mxGeometry relative="1" as="geometry" />
        </mxCell>
        <mxCell id="r9CleuGrpg9zZy7BCTui-51" value="&lt;font style=&quot;font-size: 15px&quot;&gt;Select the appointment page&lt;/font&gt;" style="whiteSpace=wrap;html=1;rounded=1;shadow=0;strokeWidth=1;glass=0;" vertex="1" parent="WIyWlLk6GJQsqaUBKTNV-1">
          <mxGeometry x="-1015" y="820" width="140" height="80" as="geometry" />
        </mxCell>
        <mxCell id="r9CleuGrpg9zZy7BCTui-66" value="" style="edgeStyle=orthogonalEdgeStyle;rounded=0;orthogonalLoop=1;jettySize=auto;html=1;" edge="1" parent="WIyWlLk6GJQsqaUBKTNV-1" source="r9CleuGrpg9zZy7BCTui-54" target="r9CleuGrpg9zZy7BCTui-46">
          <mxGeometry relative="1" as="geometry" />
        </mxCell>
        <mxCell id="r9CleuGrpg9zZy7BCTui-54" value="User clicks one from the list of available slots" style="whiteSpace=wrap;html=1;rounded=1;shadow=0;strokeWidth=1;glass=0;" vertex="1" parent="WIyWlLk6GJQsqaUBKTNV-1">
          <mxGeometry x="-750" y="595" width="220" height="60" as="geometry" />
        </mxCell>
        <mxCell id="r9CleuGrpg9zZy7BCTui-64" value="" style="edgeStyle=orthogonalEdgeStyle;rounded=0;orthogonalLoop=1;jettySize=auto;html=1;" edge="1" parent="WIyWlLk6GJQsqaUBKTNV-1" source="r9CleuGrpg9zZy7BCTui-60" target="r9CleuGrpg9zZy7BCTui-63">
          <mxGeometry relative="1" as="geometry" />
        </mxCell>
        <mxCell id="r9CleuGrpg9zZy7BCTui-60" value="&lt;font style=&quot;font-size: 15px&quot;&gt;Select the appointment page&lt;/font&gt;" style="whiteSpace=wrap;html=1;rounded=1;shadow=0;strokeWidth=1;glass=0;" vertex="1" parent="WIyWlLk6GJQsqaUBKTNV-1">
          <mxGeometry x="-1010" y="300" width="130" height="80" as="geometry" />
        </mxCell>
        <mxCell id="r9CleuGrpg9zZy7BCTui-65" value="" style="edgeStyle=orthogonalEdgeStyle;rounded=0;orthogonalLoop=1;jettySize=auto;html=1;" edge="1" parent="WIyWlLk6GJQsqaUBKTNV-1" source="r9CleuGrpg9zZy7BCTui-63" target="r9CleuGrpg9zZy7BCTui-46">
          <mxGeometry relative="1" as="geometry" />
        </mxCell>
        <mxCell id="r9CleuGrpg9zZy7BCTui-63" value="&lt;font style=&quot;font-size: 15px&quot;&gt;Default slot is highlighted for the day&lt;/font&gt;" style="whiteSpace=wrap;html=1;rounded=1;shadow=0;strokeWidth=1;glass=0;" vertex="1" parent="WIyWlLk6GJQsqaUBKTNV-1">
          <mxGeometry x="-705" y="235" width="130" height="80" as="geometry" />
        </mxCell>
        <mxCell id="r9CleuGrpg9zZy7BCTui-67" value="&lt;font style=&quot;font-size: 15px&quot;&gt;Is Already registered?&lt;/font&gt;" style="rhombus;whiteSpace=wrap;html=1;rounded=1;shadow=0;strokeWidth=1;glass=0;" vertex="1" parent="WIyWlLk6GJQsqaUBKTNV-1">
          <mxGeometry x="-480" y="390" width="190" height="160" as="geometry" />
        </mxCell>
        <mxCell id="r9CleuGrpg9zZy7BCTui-71" value="" style="ellipse;html=1;shape=startState;fillColor=#000000;strokeColor=#ff0000;" vertex="1" parent="WIyWlLk6GJQsqaUBKTNV-1">
          <mxGeometry x="-1395" y="225" width="30" height="30" as="geometry" />
        </mxCell>
        <mxCell id="r9CleuGrpg9zZy7BCTui-72" value="" style="edgeStyle=orthogonalEdgeStyle;html=1;verticalAlign=bottom;endArrow=open;endSize=8;strokeColor=#ff0000;" edge="1" source="r9CleuGrpg9zZy7BCTui-71" parent="WIyWlLk6GJQsqaUBKTNV-1">
          <mxGeometry relative="1" as="geometry">
            <mxPoint x="-1380" y="315" as="targetPoint" />
          </mxGeometry>
        </mxCell>
        <mxCell id="r9CleuGrpg9zZy7BCTui-73" value="No" style="html=1;verticalAlign=bottom;endArrow=block;entryX=0.5;entryY=0;entryDx=0;entryDy=0;exitX=0.5;exitY=1;exitDx=0;exitDy=0;" edge="1" parent="WIyWlLk6GJQsqaUBKTNV-1" source="r9CleuGrpg9zZy7BCTui-44" target="r9CleuGrpg9zZy7BCTui-51">
          <mxGeometry width="80" relative="1" as="geometry">
            <mxPoint x="-1050" y="600" as="sourcePoint" />
            <mxPoint x="-970" y="600" as="targetPoint" />
          </mxGeometry>
        </mxCell>
        <mxCell id="r9CleuGrpg9zZy7BCTui-74" value="Yes" style="html=1;verticalAlign=bottom;endArrow=block;exitX=0.5;exitY=0;exitDx=0;exitDy=0;entryX=0.5;entryY=1;entryDx=0;entryDy=0;" edge="1" parent="WIyWlLk6GJQsqaUBKTNV-1" source="r9CleuGrpg9zZy7BCTui-44" target="r9CleuGrpg9zZy7BCTui-60">
          <mxGeometry width="80" relative="1" as="geometry">
            <mxPoint x="-1010" y="610" as="sourcePoint" />
            <mxPoint x="-945" y="390" as="targetPoint" />
          </mxGeometry>
        </mxCell>
        <mxCell id="r9CleuGrpg9zZy7BCTui-75" value="Yes" style="html=1;verticalAlign=bottom;endArrow=block;exitX=0.5;exitY=0;exitDx=0;exitDy=0;" edge="1" parent="WIyWlLk6GJQsqaUBKTNV-1" source="r9CleuGrpg9zZy7BCTui-67">
          <mxGeometry width="80" relative="1" as="geometry">
            <mxPoint x="-385.83000000000004" y="360" as="sourcePoint" />
            <mxPoint x="-386" y="320" as="targetPoint" />
          </mxGeometry>
        </mxCell>
        <mxCell id="r9CleuGrpg9zZy7BCTui-76" value="No" style="html=1;verticalAlign=bottom;endArrow=block;exitX=0.5;exitY=1;exitDx=0;exitDy=0;" edge="1" parent="WIyWlLk6GJQsqaUBKTNV-1">
          <mxGeometry width="80" relative="1" as="geometry">
            <mxPoint x="-385.83000000000004" y="550" as="sourcePoint" />
            <mxPoint x="-386" y="650" as="targetPoint" />
          </mxGeometry>
        </mxCell>
        <mxCell id="r9CleuGrpg9zZy7BCTui-82" value="" style="edgeStyle=orthogonalEdgeStyle;rounded=0;orthogonalLoop=1;jettySize=auto;html=1;" edge="1" parent="WIyWlLk6GJQsqaUBKTNV-1" source="r9CleuGrpg9zZy7BCTui-77" target="r9CleuGrpg9zZy7BCTui-81">
          <mxGeometry relative="1" as="geometry" />
        </mxCell>
        <mxCell id="r9CleuGrpg9zZy7BCTui-77" value="&lt;font style=&quot;font-size: 16px&quot;&gt;User enter email and password&lt;/font&gt;" style="whiteSpace=wrap;html=1;rounded=1;shadow=0;strokeWidth=1;glass=0;" vertex="1" parent="WIyWlLk6GJQsqaUBKTNV-1">
          <mxGeometry x="-490" y="190" width="180" height="125" as="geometry" />
        </mxCell>
        <mxCell id="r9CleuGrpg9zZy7BCTui-100" value="" style="edgeStyle=orthogonalEdgeStyle;rounded=0;orthogonalLoop=1;jettySize=auto;html=1;" edge="1" parent="WIyWlLk6GJQsqaUBKTNV-1" source="r9CleuGrpg9zZy7BCTui-79" target="r9CleuGrpg9zZy7BCTui-99">
          <mxGeometry relative="1" as="geometry" />
        </mxCell>
        <mxCell id="r9CleuGrpg9zZy7BCTui-79" value="&lt;font style=&quot;font-size: 16px&quot;&gt;Registration&lt;/font&gt;" style="whiteSpace=wrap;html=1;rounded=1;shadow=0;strokeWidth=1;glass=0;" vertex="1" parent="WIyWlLk6GJQsqaUBKTNV-1">
          <mxGeometry x="-452.5" y="650" width="135" height="100" as="geometry" />
        </mxCell>
        <mxCell id="r9CleuGrpg9zZy7BCTui-84" value="" style="edgeStyle=orthogonalEdgeStyle;rounded=0;orthogonalLoop=1;jettySize=auto;html=1;" edge="1" parent="WIyWlLk6GJQsqaUBKTNV-1" source="r9CleuGrpg9zZy7BCTui-81" target="r9CleuGrpg9zZy7BCTui-83">
          <mxGeometry relative="1" as="geometry" />
        </mxCell>
        <mxCell id="r9CleuGrpg9zZy7BCTui-96" value="" style="edgeStyle=orthogonalEdgeStyle;rounded=0;orthogonalLoop=1;jettySize=auto;html=1;" edge="1" parent="WIyWlLk6GJQsqaUBKTNV-1" source="r9CleuGrpg9zZy7BCTui-81" target="r9CleuGrpg9zZy7BCTui-95">
          <mxGeometry relative="1" as="geometry" />
        </mxCell>
        <mxCell id="r9CleuGrpg9zZy7BCTui-81" value="&lt;font style=&quot;font-size: 14px&quot;&gt;If Valid ?&lt;/font&gt;" style="rhombus;whiteSpace=wrap;html=1;rounded=1;shadow=0;strokeWidth=1;glass=0;" vertex="1" parent="WIyWlLk6GJQsqaUBKTNV-1">
          <mxGeometry x="-180" y="188.75" width="230" height="127.5" as="geometry" />
        </mxCell>
        <mxCell id="r9CleuGrpg9zZy7BCTui-86" value="" style="edgeStyle=orthogonalEdgeStyle;rounded=0;orthogonalLoop=1;jettySize=auto;html=1;" edge="1" parent="WIyWlLk6GJQsqaUBKTNV-1" source="r9CleuGrpg9zZy7BCTui-83" target="r9CleuGrpg9zZy7BCTui-85">
          <mxGeometry relative="1" as="geometry" />
        </mxCell>
        <mxCell id="r9CleuGrpg9zZy7BCTui-83" value="&lt;font style=&quot;font-size: 15px&quot;&gt;Forgot Password?&lt;/font&gt;" style="whiteSpace=wrap;html=1;rounded=1;shadow=0;strokeWidth=1;glass=0;" vertex="1" parent="WIyWlLk6GJQsqaUBKTNV-1">
          <mxGeometry x="-125" y="370" width="120" height="60" as="geometry" />
        </mxCell>
        <mxCell id="r9CleuGrpg9zZy7BCTui-88" value="" style="edgeStyle=orthogonalEdgeStyle;rounded=0;orthogonalLoop=1;jettySize=auto;html=1;" edge="1" parent="WIyWlLk6GJQsqaUBKTNV-1" source="r9CleuGrpg9zZy7BCTui-85" target="r9CleuGrpg9zZy7BCTui-87">
          <mxGeometry relative="1" as="geometry" />
        </mxCell>
        <mxCell id="r9CleuGrpg9zZy7BCTui-85" value="&lt;font style=&quot;font-size: 15px&quot;&gt;User enters email?&lt;/font&gt;" style="whiteSpace=wrap;html=1;rounded=1;shadow=0;strokeWidth=1;glass=0;" vertex="1" parent="WIyWlLk6GJQsqaUBKTNV-1">
          <mxGeometry x="-147.5" y="490" width="165" height="60" as="geometry" />
        </mxCell>
        <mxCell id="r9CleuGrpg9zZy7BCTui-90" value="" style="edgeStyle=orthogonalEdgeStyle;rounded=0;orthogonalLoop=1;jettySize=auto;html=1;" edge="1" parent="WIyWlLk6GJQsqaUBKTNV-1" source="r9CleuGrpg9zZy7BCTui-87" target="r9CleuGrpg9zZy7BCTui-89">
          <mxGeometry relative="1" as="geometry" />
        </mxCell>
        <mxCell id="r9CleuGrpg9zZy7BCTui-94" value="" style="edgeStyle=orthogonalEdgeStyle;rounded=0;orthogonalLoop=1;jettySize=auto;html=1;entryX=1;entryY=0.5;entryDx=0;entryDy=0;" edge="1" parent="WIyWlLk6GJQsqaUBKTNV-1" source="r9CleuGrpg9zZy7BCTui-87" target="r9CleuGrpg9zZy7BCTui-79">
          <mxGeometry relative="1" as="geometry">
            <mxPoint x="-310" y="650" as="targetPoint" />
          </mxGeometry>
        </mxCell>
        <mxCell id="r9CleuGrpg9zZy7BCTui-87" value="If Email exists?" style="rhombus;whiteSpace=wrap;html=1;rounded=1;shadow=0;strokeWidth=1;glass=0;" vertex="1" parent="WIyWlLk6GJQsqaUBKTNV-1">
          <mxGeometry x="-137.5" y="610" width="145" height="80" as="geometry" />
        </mxCell>
        <mxCell id="r9CleuGrpg9zZy7BCTui-89" value="New password Sent to email" style="whiteSpace=wrap;html=1;rounded=1;shadow=0;strokeWidth=1;glass=0;" vertex="1" parent="WIyWlLk6GJQsqaUBKTNV-1">
          <mxGeometry x="-142.5" y="750" width="155" height="60" as="geometry" />
        </mxCell>
        <mxCell id="r9CleuGrpg9zZy7BCTui-108" value="" style="edgeStyle=orthogonalEdgeStyle;rounded=0;orthogonalLoop=1;jettySize=auto;html=1;" edge="1" parent="WIyWlLk6GJQsqaUBKTNV-1" source="r9CleuGrpg9zZy7BCTui-95" target="r9CleuGrpg9zZy7BCTui-107">
          <mxGeometry relative="1" as="geometry" />
        </mxCell>
        <mxCell id="r9CleuGrpg9zZy7BCTui-95" value="&lt;font style=&quot;font-size: 16px&quot;&gt;Confirmation Page&lt;/font&gt;" style="whiteSpace=wrap;html=1;rounded=1;shadow=0;strokeWidth=1;glass=0;" vertex="1" parent="WIyWlLk6GJQsqaUBKTNV-1">
          <mxGeometry x="130" y="590" width="284" height="120" as="geometry" />
        </mxCell>
        <mxCell id="r9CleuGrpg9zZy7BCTui-102" value="" style="edgeStyle=orthogonalEdgeStyle;rounded=0;orthogonalLoop=1;jettySize=auto;html=1;" edge="1" parent="WIyWlLk6GJQsqaUBKTNV-1" source="r9CleuGrpg9zZy7BCTui-99" target="r9CleuGrpg9zZy7BCTui-101">
          <mxGeometry relative="1" as="geometry" />
        </mxCell>
        <mxCell id="r9CleuGrpg9zZy7BCTui-99" value="&lt;font style=&quot;font-size: 16px&quot;&gt;User Enters email id and password and confirm password&lt;/font&gt;" style="whiteSpace=wrap;html=1;rounded=1;shadow=0;strokeWidth=1;glass=0;" vertex="1" parent="WIyWlLk6GJQsqaUBKTNV-1">
          <mxGeometry x="-517.5" y="800" width="265" height="70" as="geometry" />
        </mxCell>
        <mxCell id="r9CleuGrpg9zZy7BCTui-104" value="" style="edgeStyle=orthogonalEdgeStyle;rounded=0;orthogonalLoop=1;jettySize=auto;html=1;" edge="1" parent="WIyWlLk6GJQsqaUBKTNV-1" source="r9CleuGrpg9zZy7BCTui-101" target="r9CleuGrpg9zZy7BCTui-103">
          <mxGeometry relative="1" as="geometry" />
        </mxCell>
        <mxCell id="r9CleuGrpg9zZy7BCTui-101" value="&lt;font style=&quot;font-size: 17px&quot;&gt;User clicks on Register Button&lt;/font&gt;" style="whiteSpace=wrap;html=1;rounded=1;shadow=0;strokeWidth=1;glass=0;" vertex="1" parent="WIyWlLk6GJQsqaUBKTNV-1">
          <mxGeometry x="-517.5" y="950" width="265" height="70" as="geometry" />
        </mxCell>
        <mxCell id="r9CleuGrpg9zZy7BCTui-106" value="" style="edgeStyle=orthogonalEdgeStyle;rounded=0;orthogonalLoop=1;jettySize=auto;html=1;" edge="1" parent="WIyWlLk6GJQsqaUBKTNV-1" source="r9CleuGrpg9zZy7BCTui-103">
          <mxGeometry relative="1" as="geometry">
            <mxPoint x="270" y="710" as="targetPoint" />
          </mxGeometry>
        </mxCell>
        <mxCell id="r9CleuGrpg9zZy7BCTui-111" value="" style="edgeStyle=orthogonalEdgeStyle;rounded=0;orthogonalLoop=1;jettySize=auto;html=1;" edge="1" parent="WIyWlLk6GJQsqaUBKTNV-1" source="r9CleuGrpg9zZy7BCTui-103">
          <mxGeometry relative="1" as="geometry">
            <mxPoint x="-317" y="720" as="targetPoint" />
            <Array as="points">
              <mxPoint x="-70" y="850" />
              <mxPoint x="-220" y="850" />
              <mxPoint x="-220" y="720" />
              <mxPoint x="-317" y="720" />
            </Array>
          </mxGeometry>
        </mxCell>
        <mxCell id="r9CleuGrpg9zZy7BCTui-103" value="If password matches?" style="rhombus;whiteSpace=wrap;html=1;rounded=1;shadow=0;strokeWidth=1;glass=0;" vertex="1" parent="WIyWlLk6GJQsqaUBKTNV-1">
          <mxGeometry x="-140" y="945" width="140" height="80" as="geometry" />
        </mxCell>
        <mxCell id="r9CleuGrpg9zZy7BCTui-110" value="" style="edgeStyle=orthogonalEdgeStyle;rounded=0;orthogonalLoop=1;jettySize=auto;html=1;" edge="1" parent="WIyWlLk6GJQsqaUBKTNV-1" source="r9CleuGrpg9zZy7BCTui-107" target="r9CleuGrpg9zZy7BCTui-109">
          <mxGeometry relative="1" as="geometry" />
        </mxCell>
        <mxCell id="r9CleuGrpg9zZy7BCTui-107" value="&lt;font style=&quot;font-size: 16px&quot;&gt;Log out&amp;nbsp;&lt;/font&gt;" style="whiteSpace=wrap;html=1;rounded=1;shadow=0;strokeWidth=1;glass=0;" vertex="1" parent="WIyWlLk6GJQsqaUBKTNV-1">
          <mxGeometry x="494" y="590" width="284" height="120" as="geometry" />
        </mxCell>
        <mxCell id="r9CleuGrpg9zZy7BCTui-109" value="" style="ellipse;html=1;shape=endState;fillColor=#000000;strokeColor=#ff0000;verticalAlign=top;" vertex="1" parent="WIyWlLk6GJQsqaUBKTNV-1">
          <mxGeometry x="621" y="800" width="30" height="30" as="geometry" />
        </mxCell>
        <mxCell id="r9CleuGrpg9zZy7BCTui-112" value="No" style="text;html=1;strokeColor=none;fillColor=none;align=center;verticalAlign=middle;whiteSpace=wrap;rounded=0;" vertex="1" parent="WIyWlLk6GJQsqaUBKTNV-1">
          <mxGeometry x="-110" y="890" width="40" height="20" as="geometry" />
        </mxCell>
        <mxCell id="r9CleuGrpg9zZy7BCTui-113" value="Yes" style="text;html=1;strokeColor=none;fillColor=none;align=center;verticalAlign=middle;whiteSpace=wrap;rounded=0;" vertex="1" parent="WIyWlLk6GJQsqaUBKTNV-1">
          <mxGeometry x="220" y="820" width="40" height="20" as="geometry" />
        </mxCell>
        <mxCell id="r9CleuGrpg9zZy7BCTui-114" value="Yes" style="text;html=1;strokeColor=none;fillColor=none;align=center;verticalAlign=middle;whiteSpace=wrap;rounded=0;" vertex="1" parent="WIyWlLk6GJQsqaUBKTNV-1">
          <mxGeometry x="220" y="390" width="40" height="20" as="geometry" />
        </mxCell>
        <mxCell id="r9CleuGrpg9zZy7BCTui-115" value="No" style="text;html=1;strokeColor=none;fillColor=none;align=center;verticalAlign=middle;whiteSpace=wrap;rounded=0;" vertex="1" parent="WIyWlLk6GJQsqaUBKTNV-1">
          <mxGeometry x="-70" y="330" width="40" height="20" as="geometry" />
        </mxCell>
        <mxCell id="r9CleuGrpg9zZy7BCTui-116" value="No" style="text;html=1;strokeColor=none;fillColor=none;align=center;verticalAlign=middle;whiteSpace=wrap;rounded=0;" vertex="1" parent="WIyWlLk6GJQsqaUBKTNV-1">
          <mxGeometry x="-187.5" y="625" width="40" height="20" as="geometry" />
        </mxCell>
        <mxCell id="r9CleuGrpg9zZy7BCTui-117" value="Yes" style="text;html=1;strokeColor=none;fillColor=none;align=center;verticalAlign=middle;whiteSpace=wrap;rounded=0;" vertex="1" parent="WIyWlLk6GJQsqaUBKTNV-1">
          <mxGeometry x="-60" y="700" width="40" height="20" as="geometry" />
        </mxCell>
      </root>
    </mxGraphModel>
  </diagram>
</mxfile>
